<svg width="34" height="34" viewBox="0 0 34 34" fill="none" xmlns="http://www.w3.org/2000/svg">
  <path fill-rule="evenodd" clip-rule="evenodd" d="M21.3205 13.0352C21.3205 17.7139 17.5277 21.5067 12.849 21.5067C8.17034 21.5067 4.37753 17.7139 4.37753 13.0352C4.37753 8.35655 8.17034 4.56374 12.849 4.56374C17.5277 4.56374 21.3205 8.35655 21.3205 13.0352ZM20.7004 22.5325C18.5685 24.297 15.8326 25.3574 12.849 25.3574C6.04367 25.3574 0.526855 19.8406 0.526855 13.0352C0.526855 6.22989 6.04367 0.713074 12.849 0.713074C19.6543 0.713074 25.1712 6.22989 25.1712 13.0352C25.1712 15.4619 24.4697 17.7247 23.2584 19.632L32.8167 29.7877C33.5455 30.562 33.5086 31.7805 32.7342 32.5093C31.9599 33.2381 30.7414 33.2011 30.0127 32.4268L20.7004 22.5325Z" fill="#E5E5E5"/>
</svg>
