<svg width="24" height="23" viewBox="0 0 24 23" fill="none" xmlns="http://www.w3.org/2000/svg">
  <path fill-rule="evenodd" clip-rule="evenodd" d="M13.6705 9.21015C13.6705 11.7763 11.5902 13.8566 9.02399 13.8566C6.45782 13.8566 4.37753 11.7763 4.37753 9.21015C4.37753 6.64398 6.45782 4.56368 9.02399 4.56368C11.5902 4.56368 13.6705 6.64398 13.6705 9.21015ZM14.4482 15.7511C12.9766 16.9728 11.0861 17.7073 9.02399 17.7073C4.33115 17.7073 0.526855 13.903 0.526855 9.21015C0.526855 4.51731 4.33115 0.713013 9.02399 0.713013C13.7168 0.713013 17.5211 4.51731 17.5211 9.21015C17.5211 10.5005 17.2335 11.7237 16.7189 12.8191C16.968 12.9201 17.1999 13.0752 17.3963 13.2838L23.2543 19.508C23.9831 20.2823 23.9462 21.5008 23.1719 22.2296C22.3975 22.9583 21.179 22.9214 20.4503 22.1471L14.5922 15.9229C14.5403 15.8678 14.4923 15.8104 14.4482 15.7511Z" fill="#E5E5E5"/>
</svg>
